<svg width="509" height="338" viewBox="0 0 509 338" fill="none" xmlns="http://www.w3.org/2000/svg">
<g clip-path="url(#clip0_2285_39734)">
<path d="M0.794382 335.077C0.66728 334.291 0.43691 333.513 0.43691 332.727C0.421022 284.909 0.421022 237.084 0.405135 189.267C0.405135 188.497 0.142989 187.734 0 186.964C0 186.122 0 185.28 0 184.439C4.02751 184.296 8.05503 184.089 12.0905 184.034C17.2381 183.962 19.8437 186.472 20.6698 191.539C21.7104 197.948 22.9338 204.333 24.2366 210.694C25.8968 218.779 27.6286 226.855 29.5033 234.9C31.2113 242.231 33.1972 249.489 34.9369 256.812C35.8028 260.441 36.3271 264.158 37.1214 267.811C37.2724 268.518 37.9317 269.113 38.3607 269.765C38.5513 269.709 38.742 269.653 38.9326 269.606C38.734 265.254 38.4401 260.91 38.3448 256.557C38.2415 251.721 38.3686 246.884 38.313 242.048C38.2018 232.264 38.0509 222.48 37.8999 212.695C37.7808 205.294 37.8682 197.876 37.3915 190.498C37.0897 185.828 40.5214 184.296 43.7466 184.081C47.3054 183.851 50.896 184.002 54.4787 184.042C55.9562 184.057 56.7188 184.931 56.8459 186.368C56.8857 186.789 56.8459 187.21 56.8459 187.631C56.8459 235.869 56.8459 284.107 56.8459 332.345C56.8459 335.681 56.1945 336.38 52.8502 336.316C48.8147 336.237 44.7713 336.173 40.7438 335.864C38.5831 335.697 37.9556 333.497 37.5663 331.948C35.4533 323.57 33.7056 315.104 31.664 306.71C28.3435 293.097 24.88 279.517 21.496 265.921C20.646 262.49 19.8754 259.035 18.7792 255.565C18.6997 255.978 18.5409 256.383 18.5409 256.796C18.525 261.354 18.4773 265.913 18.5409 270.463C18.6362 277.722 18.811 284.981 18.9539 292.248C19.0969 299.578 19.2161 306.908 19.3829 314.238C19.4941 319.257 19.7086 324.269 19.7801 329.288C19.8516 333.815 17.5638 336.213 13.0517 336.316C9.69145 336.396 6.32328 336.292 2.9551 336.269C2.97099 334.529 1.66026 335.228 0.802325 335.093L0.794382 335.077ZM18.5885 252.896C18.4058 253.27 18.1834 253.508 18.2231 253.691C18.2708 253.889 18.5568 254.04 18.7395 254.207C18.9142 253.968 19.1525 253.754 19.232 253.492C19.2638 253.389 18.9063 253.182 18.5965 252.896H18.5885Z" fill="#212B5D"/>
<path d="M117.036 338C114.414 337.397 111.706 337.055 109.195 336.142C104.866 334.569 100.664 332.647 98.0105 328.526C97.7722 328.16 97.1923 328.025 96.8666 327.7C96.39 327.215 95.7068 326.691 95.6273 326.111C95.3414 324.134 95.1666 322.133 95.1587 320.131C95.1348 279.978 95.1348 239.816 95.1507 199.663C95.1507 196.081 96.6362 193.024 98.8128 190.26C99.4483 189.458 99.9567 188.505 100.727 187.862C101.434 187.274 102.451 187.083 103.261 186.599C108.083 183.756 113.342 182.493 118.879 182.35C125.734 182.175 132.566 182.16 139.08 184.852C144.625 187.147 149.232 190.363 150.829 196.558C151.234 198.138 151.528 199.798 151.528 201.418C151.568 240.38 151.536 279.35 151.576 318.313C151.576 325.929 148.072 331.162 141.447 334.665C137.992 336.491 134.29 337.15 130.501 337.595C130.207 337.627 129.945 337.857 129.667 338H117.036ZM114.51 260.139C114.51 279.763 114.51 299.395 114.51 319.019C114.51 322.283 115.836 324.539 118.68 325.508C121.667 326.524 124.71 326.604 127.76 325.452C131.597 324.007 132.153 320.862 132.153 317.383C132.153 284.997 132.153 252.619 132.153 220.232C132.153 214.204 132.256 208.177 132.121 202.149C132.018 197.662 130.811 195.279 126.219 194.31C124.471 193.945 122.533 193.866 120.801 194.207C116.385 195.081 114.478 197.193 114.486 201.895C114.55 221.312 114.51 240.73 114.51 260.139Z" fill="#212B5D"/>
<path d="M474.897 338C471.616 337.158 468.24 336.594 465.079 335.419C457.461 332.592 452.511 327.247 452.535 317.971C452.647 279.438 452.654 240.912 452.535 202.379C452.504 192.936 457.127 187.528 465.301 184.447C466.898 183.843 468.399 182.906 470.044 182.533C471.577 182.183 473.229 182.334 474.834 182.342C481.332 182.374 487.877 181.866 494.209 184.01C500.548 186.154 506.061 189.204 508.277 196.105C508.515 196.844 508.754 197.582 509 198.321V322.013C508.762 322.752 508.515 323.49 508.285 324.237C506.236 330.98 501.016 334.252 494.796 336.269C492.31 337.079 489.673 337.436 487.107 338H474.897ZM489.633 260.171C489.633 240.619 489.633 221.066 489.633 201.513C489.633 197.487 488.06 195.446 484.08 194.525C482.754 194.215 481.355 194.128 479.989 194.136C474.691 194.151 471.95 196.891 471.95 202.109C471.95 240.372 471.95 278.636 471.99 316.899C471.99 318.162 472.856 319.48 472.665 320.671C472.331 322.776 473.293 324.126 474.897 324.721C477.034 325.508 479.37 326.159 481.618 326.143C486.297 326.103 489.657 323.768 489.649 318.201C489.617 298.863 489.633 279.517 489.633 260.179V260.171Z" fill="#212B5D"/>
<path d="M185.377 60.095C183.359 59.3484 181.349 58.6019 179.331 57.8474C179.053 57.7045 178.767 57.5695 178.489 57.4265C176.241 56.5847 174.001 55.7429 171.753 54.9011C171.475 54.7581 171.189 54.6231 170.911 54.4801C168.663 53.6383 166.423 52.7965 164.175 51.9547C163.897 51.8117 163.611 51.6767 163.333 51.5338C160.385 50.414 157.438 49.2942 154.491 48.1665C154.213 48.0235 153.927 47.8885 153.649 47.7456C152.052 47.1658 150.432 46.6258 148.851 46.0063C146.094 44.9262 143.346 43.8065 140.597 42.7026C140.319 42.5596 140.033 42.4246 139.755 42.2817C139.334 42.1387 138.913 42.0037 138.492 41.8607C138.214 41.7178 137.928 41.5828 137.65 41.4398C134.163 40.1056 130.668 38.7952 127.196 37.4213C123.931 36.1348 120.69 34.7767 117.441 33.4504C117.06 33.2598 116.671 33.0692 116.289 32.8786C115.979 32.7992 115.67 32.7119 115.36 32.6325C115.074 32.4816 114.788 32.3386 114.502 32.1877C112.397 31.3459 110.292 30.5041 108.187 29.6622C107.909 29.5193 107.623 29.3843 107.345 29.2413L103.158 27.4942C102.872 27.375 102.578 27.2559 102.292 27.1368C100.608 26.43 98.932 25.7152 97.2479 25.0084C97.0176 24.7463 96.7951 24.4763 96.5648 24.2142C96.3741 24.4525 96.1835 24.6828 95.9928 24.921C95.1508 24.3969 94.3008 23.8648 93.4587 23.3406C92.9344 23.1024 92.4102 22.8721 91.8779 22.6338C91.5681 22.5623 91.2662 22.4909 90.9564 22.4194C90.1144 21.9985 89.2723 21.5776 88.4303 21.1567C87.8663 20.7278 87.2943 20.2989 86.7303 19.8701C86.2934 19.4809 85.8565 19.0839 85.4196 18.6947C84.8715 18.1467 84.3154 17.5908 83.7673 17.0428C83.3939 16.1851 83.0365 15.3195 82.6075 14.4935C82.5837 14.4459 81.964 14.7 81.6225 14.8192C80.8837 13.2705 80.1529 11.7139 79.422 10.1653C79.1837 9.64114 78.9374 9.11699 78.6912 8.59284C77.8094 5.86882 76.9277 3.15275 76.0459 0.428738C76.1889 0.285787 76.3319 0.142836 76.4828 -0.00805664C83.1318 2.73184 89.7728 5.47968 96.4218 8.21958C96.954 8.41812 97.4783 8.6246 98.0105 8.82315C98.1853 8.90256 98.3521 8.98198 98.5269 9.0614C99.0591 9.25994 99.5834 9.46643 100.116 9.66497C100.29 9.74439 100.457 9.8238 100.632 9.90322C101.053 10.0462 101.466 10.1812 101.887 10.3241C102.173 10.4671 102.451 10.6021 102.737 10.745C103.269 10.9436 103.794 11.1501 104.326 11.3486C107.726 12.6908 111.126 14.0329 114.526 15.3751C115.058 15.5736 115.582 15.7801 116.115 15.9786C119.514 17.3208 122.914 18.663 126.314 20.0051C126.847 20.2036 127.371 20.4101 127.903 20.6087C130.604 21.6729 133.297 22.7291 135.998 23.7933C136.53 23.9918 137.054 24.1983 137.587 24.3969C137.761 24.4763 137.928 24.5557 138.103 24.6351C138.619 24.8257 139.136 25.0243 139.66 25.2149C142.369 26.287 145.078 27.3512 147.786 28.4233C148.319 28.6219 148.843 28.8284 149.375 29.0269C149.55 29.1063 149.717 29.1857 149.892 29.2652C150.408 29.4558 150.924 29.6543 151.441 29.8449C154.149 30.917 156.866 31.9812 159.575 33.0534C160.107 33.2519 160.632 33.4584 161.164 33.6569C164.564 34.9991 167.964 36.3412 171.364 37.6834C171.896 37.8819 172.42 38.0884 172.952 38.287C176.352 39.6291 179.752 40.9713 183.152 42.3134C183.685 42.512 184.209 42.7184 184.741 42.917C188.141 44.2591 191.541 45.6013 194.941 46.9434C195.473 47.142 195.997 47.3485 196.53 47.547C199.231 48.6112 201.924 49.6675 204.624 50.7317C205.014 50.8825 205.403 51.0334 205.792 51.1764C206.102 51.3035 206.42 51.4385 206.73 51.5655C207.246 51.7561 207.762 51.9547 208.279 52.1453C210.987 53.2174 213.704 54.2816 216.413 55.3537C216.699 55.457 216.985 55.5523 217.271 55.6555C217.684 55.8382 218.097 56.0129 218.518 56.1956C219.035 56.3862 219.551 56.5847 220.067 56.7753C224.119 57.3709 226.081 60.7224 228.662 63.2558C228.718 63.8117 228.766 64.3676 228.821 64.9235C229.219 64.8123 229.624 64.7012 230.021 64.59C232.793 67.5125 235.574 70.4351 238.346 73.3497C237.695 74.8269 238.831 74.541 239.601 74.6204C242.413 77.5668 245.217 80.5052 248.03 83.4516C247.966 83.7375 247.902 84.0234 247.831 84.3093C248.165 84.2934 248.506 84.2855 248.84 84.2696C250.754 86.2947 252.669 88.3278 254.329 90.0829C255.981 88.5899 257.443 87.2716 258.905 85.9532C259.238 85.9691 259.58 85.9771 259.913 85.9929C259.85 85.707 259.786 85.4211 259.715 85.1352C262.527 82.1888 265.339 79.2504 268.143 76.304C269.7 76.2008 269.819 76.0737 269.398 75.0333C272.218 72.1584 274.498 68.7673 277.723 66.2736C278.121 66.3848 278.526 66.496 278.923 66.6072C278.979 66.0513 279.026 65.4953 279.082 64.9394C280.885 62.946 282.553 60.8018 284.547 59.0308C285.683 58.0142 287.359 57.6012 288.797 56.9183C289.075 56.7753 289.361 56.6324 289.639 56.4973C293.285 55.0996 296.932 53.6939 300.586 52.2962C300.864 52.1532 301.15 52.0103 301.428 51.8753C305.074 50.4775 308.72 49.0718 312.374 47.6741C312.652 47.5311 312.938 47.3882 313.216 47.2532C315.544 45.2122 318.706 45.3551 321.367 44.1718C321.875 43.9415 322.392 43.7032 322.9 43.465C323.321 43.322 323.742 43.187 324.163 43.0441C324.441 42.9011 324.727 42.7582 325.005 42.6231C327.571 40.4948 330.971 40.5742 333.847 39.2559C334.125 39.1129 334.411 38.97 334.689 38.8349C338.335 37.4372 341.981 36.0315 345.635 34.6338C345.913 34.4908 346.199 34.3479 346.477 34.2129C350.123 32.8151 353.77 31.4094 357.424 30.0117C357.702 29.8687 357.988 29.7258 358.266 29.5908C361.912 28.193 365.558 26.7873 369.212 25.3896C369.49 25.2466 369.776 25.1037 370.054 24.9687C372.382 22.9277 375.544 23.0706 378.205 21.8873C378.713 21.657 379.23 21.4187 379.738 21.1805C380.159 21.0375 380.58 20.9025 381.001 20.7596C381.279 20.6166 381.565 20.4737 381.843 20.3387C384.171 18.2897 387.332 18.4406 389.985 17.2573C390.502 17.027 391.01 16.7887 391.527 16.5504C391.948 16.4075 392.369 16.2725 392.79 16.1295C393.068 15.9866 393.354 15.8436 393.632 15.7086C396.198 13.5802 399.598 13.6597 402.473 12.3413C402.751 12.1984 403.037 12.0554 403.315 11.9204C405.857 10.8324 408.391 9.75233 410.933 8.66431C412.347 8.09251 413.769 7.5207 415.183 6.9489C419.115 5.44791 423.056 3.93898 426.988 2.44594C428.64 1.81854 430.3 1.21497 431.953 0.603456C431.969 1.87413 431.984 3.14481 432 4.41549C431.381 7.08391 430.801 9.76027 429.053 11.984C428.759 12.4128 428.473 12.8496 428.179 13.2785C426.527 17.5193 423.103 19.9019 419.227 21.8079C418.702 22.0461 418.178 22.2844 417.654 22.5306C416.637 22.9912 415.612 23.4518 414.595 23.9124C414.071 24.1427 413.539 24.3731 413.015 24.6113C412.451 25.0005 411.887 25.3975 411.323 25.7867C411.132 25.5484 410.941 25.3181 410.751 25.0799C410.52 25.3419 410.29 25.612 410.067 25.874C409.615 26.0646 409.154 26.2552 408.701 26.4379C408.169 26.6603 407.645 26.8826 407.112 27.105C404.253 28.4789 401.409 29.8767 398.517 31.195C397.921 31.465 397.167 31.4015 396.491 31.4888C395.959 31.6874 395.435 31.8939 394.903 32.1004C389.112 34.4988 383.337 36.9369 377.53 39.2876C374.058 40.6933 370.523 41.9481 367.02 43.2744C366.488 43.4729 365.963 43.6794 365.431 43.8859C362.015 45.236 358.607 46.5781 355.192 47.9282C354.675 48.1188 354.159 48.3174 353.643 48.5159C350.934 49.5801 348.225 50.6522 345.508 51.7164C344.992 51.907 344.475 52.1056 343.959 52.3041C341.949 53.0903 339.939 53.8766 337.938 54.6628C337.421 54.8534 336.905 55.052 336.381 55.2505C334.371 56.0367 332.361 56.823 330.351 57.6092C329.835 57.7998 329.319 57.9983 328.802 58.1969C326.101 59.2531 323.408 60.3173 320.707 61.3736C320.175 61.5721 319.651 61.7786 319.119 61.9851C317.125 62.7634 315.123 63.5417 313.129 64.32C312.597 64.5185 312.073 64.725 311.54 64.9315C309.531 65.7177 307.521 66.5039 305.511 67.2902C304.995 67.4808 304.478 67.6793 303.962 67.8778C301.261 68.9341 298.568 69.9983 295.867 71.0545C295.343 71.2928 294.819 71.539 294.294 71.7852C292.189 74.0168 290.092 76.2484 287.987 78.4801C286.438 78.5912 286.319 78.7183 286.748 79.7507C284.65 82.0379 282.545 84.3331 280.448 86.6203C280.297 86.8427 280.146 87.0651 280.003 87.2954C279.773 87.4066 279.543 87.5177 279.312 87.6289C279.415 87.7719 279.511 87.9228 279.614 88.0657C279.868 87.8354 280.13 87.6051 280.385 87.3748C280.544 87.2318 280.71 87.0889 280.869 86.9539C281.266 86.9142 281.656 86.8824 282.053 86.8427C282.331 86.6997 282.617 86.5568 282.895 86.4218C289.345 83.9916 295.764 81.482 302.246 79.1551C306.504 77.6303 310.873 76.4152 315.171 74.9857C317.347 74.263 319.659 73.6912 321.573 72.5079C327.666 68.7117 334.593 67.0678 341.187 64.5979C345.492 62.9857 350.171 62.1995 354.246 60.1823C360.752 56.958 367.552 54.5755 374.281 51.9706C376.481 51.1208 378.658 50.1996 380.914 49.5483C381.644 49.3339 382.598 49.8739 383.686 50.1201C383.186 51.4543 382.693 52.7647 382.201 54.0751C382.002 54.6072 381.795 55.1314 381.597 55.6635C381.271 56.41 380.937 57.1565 380.612 57.911C380.151 58.1095 379.69 58.3081 379.23 58.5066C379.42 58.856 379.611 59.2134 379.802 59.5629C377.776 63.3749 375.432 66.901 371.349 68.8467C369.665 68.1637 367.584 68.9897 367.139 70.5304C365.685 71.0863 364.414 72.3173 362.595 71.404C362.277 71.2451 361.451 72.0949 361.181 72.2696C360.013 72.7382 359.163 73.1829 358.258 73.4291C354.866 74.3504 352.292 77.6303 348.304 76.8441C347.963 76.7805 347.264 76.9791 347.216 77.1776C346.851 78.6786 345.675 78.766 344.475 79.0757C341.282 79.9175 338.073 80.7593 334.975 81.895C332.433 82.8242 330.097 84.2934 327.579 85.3099C325.41 86.1835 323.234 87.351 320.843 86.7871C318.396 89.384 314.916 89.7176 311.818 90.8612C311.31 91.0915 310.802 91.3298 310.301 91.568C309.26 91.8936 308.228 92.2192 307.187 92.5449C306.671 92.7355 306.162 92.934 305.646 93.1325C302.651 94.1967 299.656 95.2689 296.662 96.3331C296.145 96.5237 295.637 96.7222 295.12 96.9208C293.667 97.429 292.213 97.9294 290.759 98.4376C290.251 98.6679 289.75 98.9062 289.242 99.1444C287.701 99.5098 286.16 99.8751 284.96 100.153C283.252 100.9 281.743 101.567 280.242 102.226C279.733 102.456 279.225 102.694 278.724 102.933C277.183 103.298 275.642 103.663 274.435 103.941C272.727 104.688 271.225 105.355 269.716 106.014C269.208 106.205 268.691 106.403 268.183 106.602C266.729 107.11 265.276 107.618 263.822 108.119C263.313 108.309 262.797 108.508 262.289 108.706C260.096 109.691 257.983 110.962 255.687 111.534C254.543 111.819 253.082 110.811 251.763 110.39L250.23 109.81C248.705 109.183 247.219 108.389 245.638 107.976C244.121 107.579 242.223 108.031 241.007 107.277C239.784 106.514 239.252 104.751 237.234 105.371C236.686 105.538 235.963 105.164 235.327 105.045C235.407 103.894 234.875 103.544 233.81 103.909C232.356 103.409 230.903 102.901 229.449 102.401C228.941 102.21 228.424 102.011 227.916 101.821L218.923 98.6123C218.415 98.4217 217.899 98.2232 217.39 98.0326C215.833 97.3734 214.292 96.6746 212.703 96.071C212.076 95.8327 211.369 95.8407 210.694 95.7295C209.923 95.6104 209.152 95.4833 208.382 95.3642C208.461 94.2126 207.929 93.8632 206.865 94.2285C205.411 93.7282 203.957 93.2199 202.504 92.7196C201.995 92.529 201.479 92.3304 200.97 92.1398C199.93 91.9492 198.897 91.7666 197.856 91.576C197.936 90.4165 197.404 90.075 196.339 90.4403C193.344 89.3761 190.342 88.3119 187.347 87.2477C186.83 87.0571 186.322 86.8586 185.806 86.668C184.844 86.1915 183.915 85.6594 182.922 85.2702C182.247 85.0082 181.5 84.8732 180.777 84.8096C179.649 84.7143 178.386 85.1273 177.814 83.5707C177.711 83.3007 176.972 83.2848 176.551 83.1021C175.558 82.6812 174.589 82.2206 173.596 81.8156C173.167 81.6409 172.706 81.4582 172.253 81.4503C170.943 81.4264 169.95 80.7196 168.83 80.2511C166.796 79.3934 164.484 79.171 162.514 77.8844C161.815 77.4317 160.703 77.6621 159.877 77.3364C157.184 76.2802 154.578 74.9539 151.846 74.0247C147.612 72.5794 143.243 71.539 139.048 69.9903C137.388 69.3788 135.95 67.989 134.6 66.7501C133.122 65.3841 131.732 63.8752 130.548 62.2472C129.818 61.2465 129.524 59.9202 129.047 58.729C127.848 55.7667 126.648 52.7965 125.488 49.8184C125.369 49.5245 125.472 49.1433 125.472 48.5318C129.683 50.0884 133.71 51.5814 137.746 53.0824C140.542 54.1228 143.346 55.1393 146.126 56.2194C147.302 56.6721 148.414 57.2756 149.367 57.7204C150.75 58.1175 151.822 58.3557 152.855 58.729C156.27 59.9679 159.678 61.2306 163.062 62.5331C168.011 64.4311 172.929 66.4007 177.878 68.2908C180.285 69.2121 182.866 69.7759 185.091 71.0148C186.385 71.7375 187.307 72.6667 188.093 72.1426C190.389 72.9844 192.137 73.6118 193.877 74.2709C201.63 77.2014 209.375 80.1399 217.12 83.0783C218.701 83.674 220.282 84.2616 221.87 84.8573C222.156 84.9605 222.442 85.0558 222.728 85.1591C223.57 85.437 224.413 85.7229 225.255 86.0009C225.533 86.1438 225.819 86.2788 226.097 86.4218C226.78 86.4297 227.463 86.4456 228.146 86.4536C228.44 86.5965 228.726 86.7474 229.02 86.8904C229.298 87.1683 229.584 87.4542 229.862 87.7322C231.483 87.208 230.537 86.4218 229.902 86.0088C229.377 85.6673 228.583 85.7388 227.908 85.6276C225.739 83.253 223.57 80.8705 221.394 78.4959C221.338 77.94 221.291 77.3841 221.235 76.8282C220.838 76.9394 220.433 77.0506 220.035 77.1617C218.82 75.8513 217.74 74.3742 216.357 73.2703C214.975 72.1664 213.291 71.4278 211.742 70.5304C211.234 70.3001 210.717 70.0618 210.209 69.8315L204.164 67.584C203.886 67.4411 203.6 67.306 203.322 67.1631C201.074 66.3213 198.833 65.4794 196.585 64.6376C196.307 64.4947 196.021 64.3597 195.743 64.2167C192.868 62.8984 189.468 62.9857 186.902 60.8494C186.393 60.6191 185.877 60.3809 185.369 60.1505L185.377 60.095Z" fill="#212B5D"/>
<path d="M242.485 194.167C242.612 194.437 242.747 194.707 242.875 194.977L243.447 196.129C243.574 196.439 243.701 196.748 243.836 197.058C243.939 197.344 244.034 197.63 244.138 197.916C244.297 210.281 244.463 222.646 244.598 235.012C244.638 238.792 244.59 242.58 244.606 246.368C244.63 251.165 242.35 254.596 238.323 256.971C236.305 258.162 236.162 259.369 238.18 260.544C242.914 263.3 244.733 267.319 244.67 272.775C244.479 287.769 244.575 302.771 244.614 317.773C244.63 323.959 241.723 328.486 236.663 331.615C232.484 334.188 227.853 335.776 222.888 335.872C212.188 336.086 201.495 336.213 190.795 336.261C189.611 336.261 188.42 335.554 187.546 335.276C187.808 333.513 188.166 332.258 188.166 330.995C188.197 283.194 188.189 235.401 188.189 187.6C188.189 184.526 188.714 184.01 191.836 184.01C201.305 184.01 210.774 183.875 220.243 184.058C226.653 184.185 232.73 185.844 238.037 189.649C239.332 190.578 240.412 191.785 241.596 192.873L242.485 194.159V194.167ZM207.977 324.745C212.037 324.531 215.874 324.491 219.663 324.078C223.261 323.681 225.239 321.18 225.239 317.598C225.239 302.334 225.239 287.062 225.239 271.798C225.239 268.407 223.635 265.794 220.362 265.317C216.287 264.722 212.108 264.833 207.977 264.634V324.753V324.745ZM207.977 252.603C211.743 252.603 215.381 252.714 219.011 252.571C222.499 252.436 225.223 249.497 225.223 246.059C225.247 231.486 225.239 216.913 225.223 202.339C225.223 199.345 223.237 196.653 220.306 196.312C216.255 195.843 212.156 195.827 207.977 195.613V252.603Z" fill="#212B5D"/>
<path d="M410.107 190.729C410.989 191.61 411.863 192.492 412.737 193.373C412.721 194.064 412.514 194.826 412.729 195.438C413.229 196.852 413.896 198.21 414.572 199.552C414.691 199.79 415.152 199.861 415.461 200.004C415.596 217.722 415.723 235.432 415.874 253.143C415.93 259.528 412.872 263.856 407.168 266.469C406.866 266.604 406.596 266.81 406.588 266.818C408.876 268.621 411.418 270.209 413.428 272.306C415.628 274.601 415.827 277.833 415.835 280.859C415.89 298.101 415.866 315.35 415.859 332.6C415.859 335.76 415.263 336.372 412.03 336.308C408.479 336.237 404.864 336.443 401.401 335.832C397.564 335.157 396.158 332.909 396.158 329.058C396.158 312.936 396.015 296.806 396.229 280.684C396.301 275.205 393.425 273.259 388.961 272.854C385.704 272.56 382.399 272.798 378.896 272.798V275.173C378.896 293.193 378.809 311.205 378.959 329.224C378.991 333.402 376.06 336.102 372.009 336.3C368.72 336.459 365.415 336.332 362.119 336.332C360.395 336.332 359.489 335.713 359.497 333.743C359.537 284.671 359.537 235.599 359.497 186.527C359.497 184.701 360.22 184.018 361.976 184.026C371.937 184.05 381.907 183.819 391.86 184.129C397.032 184.288 402.116 185.582 406.675 188.314C406.866 190.458 408.264 190.911 410.091 190.752L410.107 190.729ZM389.112 260.155C389.811 260.195 390.788 260.481 391.622 260.258C394.68 259.456 396.166 257.399 396.166 254.254C396.166 237.021 396.166 219.787 396.166 202.546C396.166 199.274 394.283 196.645 391.082 196.272C387.102 195.803 383.074 195.803 379.007 195.605V261.092C382.328 260.536 385.712 261.831 389.112 260.147V260.155Z" fill="#212B5D"/>
<path d="M301.055 195.795V255.12H303.287C309.038 255.12 314.797 255.12 320.549 255.12C323.409 255.12 323.687 255.477 323.774 258.392C323.861 261.18 323.845 263.975 321.049 265.516C319.667 266.278 317.975 266.786 316.41 266.834C311.374 267.001 306.329 266.898 301.15 266.898V324.539C307.291 324.539 313.439 324.523 319.588 324.555C320.398 324.555 321.248 324.666 322.018 324.912C325.498 326.008 326.705 327.684 326.705 331.257C326.705 332.028 326.681 332.798 326.705 333.568C326.769 335.514 325.768 336.324 323.893 336.316C310.698 336.3 297.512 336.308 284.317 336.316C282.45 336.316 281.616 335.61 281.624 333.576C281.672 284.632 281.664 235.687 281.624 186.75C281.624 184.756 282.307 183.986 284.293 183.994C297.488 184.034 310.675 184.01 323.869 184.018C326.03 184.018 326.689 184.685 326.697 186.853C326.697 188.251 326.856 189.696 326.562 191.038C325.943 193.826 323.083 195.779 319.929 195.787C314.384 195.803 308.84 195.787 303.303 195.787H301.063L301.055 195.795Z" fill="#212B5D"/>
<path d="M252.136 138.178C250.286 137.511 248.459 136.764 246.576 136.185C240.062 134.191 233.921 131.285 227.781 128.41C226.136 127.639 224.714 126.186 223.491 124.78C219.17 119.801 217.128 113.638 214.459 107.174C216.659 108 218.415 108.611 220.139 109.302C228.416 112.645 236.678 116.021 244.955 119.364C247.72 120.484 250.524 121.5 253.265 122.66C254.798 123.303 256.053 123.129 257.181 121.921C257.387 121.699 257.618 121.445 257.888 121.35C263.989 119.086 270.217 117.117 276.167 114.512C281.513 112.169 287.121 110.533 292.372 107.984C292.721 107.817 293.19 107.896 294.271 107.801C293.508 109.945 293.079 111.931 292.134 113.63C289.822 117.808 287.479 121.985 284.762 125.9C282.887 128.608 279.948 129.935 276.373 129.784C276.294 132.547 273.696 131.737 272.218 132.508C269.883 133.723 267.373 134.851 264.815 135.303C262.749 135.661 261.185 136.757 259.389 137.495C257.904 138.107 256.386 138.655 254.845 139.107C254.289 139.274 253.63 139.091 253.018 139.068C252.724 138.774 252.438 138.488 252.144 138.194L252.136 138.178Z" fill="#212B5D"/>
<path d="M237.703 53.4558C240.182 54.4485 242.652 55.4651 245.139 56.426C248.149 57.5935 251.16 58.7688 254.21 59.833C254.695 59.9998 255.402 59.6821 255.966 59.4677C260.923 57.5617 265.872 55.6319 270.829 53.7179C271.131 53.6067 271.48 53.6385 272.442 53.5273C269.987 55.886 267.842 57.7841 265.896 59.8648C262.607 63.375 259.453 67.0044 256.236 70.5861C255.386 71.5312 254.393 72.3492 253.384 70.9356C249.047 64.8919 243.566 59.9204 238.355 54.6868C238.069 54.4009 237.799 54.0912 237.521 53.7894L237.703 53.4399V53.4558Z" fill="#212B5D"/>
<path d="M415.461 200.004C415.16 199.853 414.691 199.79 414.572 199.552C413.897 198.21 413.221 196.852 412.729 195.438C412.514 194.826 412.729 194.064 412.737 193.373C413.642 195.581 414.556 197.797 415.461 200.004Z" fill="#212B5D"/>
<path d="M367.132 70.4749C367.585 68.9342 369.658 68.1003 371.342 68.7912C369.936 69.3551 368.53 69.911 367.132 70.4749Z" fill="#212B5D"/>
<path d="M410.107 190.729C408.272 190.887 406.882 190.435 406.691 188.291C407.827 189.101 408.971 189.919 410.107 190.729Z" fill="#212B5D"/>
<path d="M432.001 4.39169C431.985 3.12101 431.969 1.85034 431.953 0.57966C432.231 0.420826 432.517 0.254049 432.795 0.0952148C432.676 1.23882 432.565 2.38243 432.446 3.53398C432.295 3.81989 432.152 4.10579 432.001 4.39169Z" fill="#212B5D"/>
<path d="M229.028 86.8348C228.734 86.6918 228.448 86.5409 228.154 86.398C228.075 86.12 227.995 85.842 227.916 85.572C228.591 85.6832 229.386 85.6117 229.91 85.9532C230.545 86.3662 231.491 87.1524 229.87 87.6766C229.592 87.3986 229.306 87.1127 229.028 86.8348Z" fill="#212B5D"/>
<path d="M81.6144 14.8191C81.956 14.7079 82.5756 14.4459 82.5994 14.4935C83.0284 15.3195 83.3859 16.1851 83.7592 17.0428L81.6064 14.8191H81.6144Z" fill="#212B5D"/>
<path d="M220.044 77.1063C220.441 76.9951 220.846 76.8839 221.243 76.7727C221.299 77.3286 221.347 77.8845 221.402 78.4405C220.95 77.9957 220.497 77.551 220.044 77.1063Z" fill="#212B5D"/>
<path d="M279.082 64.9395C279.026 65.4954 278.979 66.0513 278.923 66.6072C278.526 66.496 278.121 66.3848 277.724 66.2737C278.176 65.8289 278.629 65.3842 279.082 64.9395Z" fill="#212B5D"/>
<path d="M230.013 64.5901C229.615 64.7013 229.21 64.8124 228.813 64.9236C228.758 64.3677 228.71 63.8118 228.654 63.2559C229.107 63.7006 229.56 64.1453 230.013 64.5901Z" fill="#212B5D"/>
<path d="M379.794 59.4995C379.603 59.1501 379.412 58.7927 379.222 58.4433C379.682 58.2447 380.143 58.0462 380.604 57.8477C380.334 58.3956 380.064 58.9516 379.794 59.4995Z" fill="#212B5D"/>
<path d="M0.793945 335.077C1.65188 335.212 2.96261 334.513 2.94672 336.253C2.23178 335.864 1.50889 335.466 0.793945 335.077Z" fill="#212B5D"/>
<path d="M269.399 75.0334C269.82 76.0738 269.701 76.1929 268.144 76.3041C268.565 75.8832 268.978 75.4623 269.399 75.0334Z" fill="#212B5D"/>
<path d="M286.756 79.6952C286.335 78.6628 286.446 78.5357 287.995 78.4246C287.582 78.8455 287.169 79.2743 286.756 79.6952Z" fill="#212B5D"/>
<path d="M239.586 74.6205C238.815 74.5491 237.679 74.827 238.331 73.3499C238.752 73.7708 239.165 74.1996 239.586 74.6205Z" fill="#212B5D"/>
<path d="M196.34 90.3768C197.404 90.0035 197.937 90.3529 197.857 91.5124C197.349 91.1312 196.848 90.758 196.34 90.3768Z" fill="#212B5D"/>
<path d="M206.865 94.1651C207.93 93.7918 208.454 94.1413 208.383 95.3008C207.874 94.9196 207.374 94.5463 206.865 94.1651Z" fill="#212B5D"/>
<path d="M259.716 85.1274C259.779 85.4133 259.843 85.6992 259.914 85.9851C259.58 85.9693 259.239 85.9613 258.905 85.9454C259.175 85.6754 259.445 85.3975 259.716 85.1274Z" fill="#212B5D"/>
<path d="M248.832 84.2618C248.498 84.2777 248.157 84.2857 247.823 84.3016C247.887 84.0157 247.95 83.7297 248.022 83.4438C248.292 83.7139 248.562 83.9918 248.832 84.2618Z" fill="#212B5D"/>
<path d="M233.811 103.838C234.875 103.465 235.399 103.814 235.328 104.974L233.811 103.838Z" fill="#212B5D"/>
<path d="M95.9932 24.9131C96.1838 24.6749 96.3745 24.4446 96.5651 24.2063C96.7955 24.4684 97.0179 24.7384 97.2483 25.0005C96.8273 24.9687 96.4142 24.9369 95.9932 24.9131Z" fill="#212B5D"/>
<path d="M410.067 25.8423C410.298 25.5802 410.528 25.3102 410.751 25.0481C410.941 25.2863 411.132 25.5167 411.322 25.7549C410.901 25.7867 410.48 25.8105 410.067 25.8423Z" fill="#212B5D"/>
<path d="M365.432 43.8464C365.956 43.6399 366.488 43.4413 367.02 43.2349C366.496 43.4413 365.964 43.6399 365.432 43.8464Z" fill="#212B5D"/>
<path d="M391.519 16.5266C391.002 16.7649 390.494 17.0031 389.978 17.2334C390.494 16.9952 391.002 16.7649 391.519 16.5266Z" fill="#212B5D"/>
<path d="M336.381 55.211C336.897 55.0124 337.414 54.8218 337.938 54.6233C337.421 54.8218 336.905 55.0124 336.381 55.211Z" fill="#212B5D"/>
<path d="M91.8779 22.626C92.4022 22.8642 92.9265 23.0945 93.4587 23.3328C92.9345 23.0945 92.4102 22.8642 91.8779 22.626Z" fill="#212B5D"/>
<path d="M319.119 61.9374C319.643 61.731 320.176 61.5324 320.708 61.3259C320.184 61.5324 319.651 61.731 319.119 61.9374Z" fill="#212B5D"/>
<path d="M311.541 64.884C312.065 64.6775 312.598 64.4789 313.13 64.2725C312.605 64.4789 312.073 64.6775 311.541 64.884Z" fill="#212B5D"/>
<path d="M139.644 25.215C139.128 25.0244 138.611 24.8259 138.087 24.6353C138.603 24.8259 139.12 25.0244 139.644 25.215Z" fill="#212B5D"/>
<path d="M278.725 102.869C279.233 102.631 279.741 102.401 280.242 102.162C279.733 102.401 279.225 102.631 278.725 102.869Z" fill="#212B5D"/>
<path d="M413.015 24.5797C413.539 24.3494 414.071 24.1191 414.595 23.8809C414.071 24.1112 413.539 24.3415 413.015 24.5797Z" fill="#212B5D"/>
<path d="M394.903 32.0688C395.428 31.8623 395.96 31.6638 396.492 31.4573C395.968 31.6638 395.436 31.8623 394.903 32.0688Z" fill="#212B5D"/>
<path d="M310.302 91.5125C310.81 91.2742 311.319 91.0439 311.819 90.8057C311.311 91.0439 310.802 91.2742 310.302 91.5125Z" fill="#212B5D"/>
<path d="M282.895 86.3662C282.617 86.5092 282.331 86.6521 282.053 86.7871C282.331 86.6442 282.617 86.5012 282.895 86.3662Z" fill="#212B5D"/>
<path d="M370.047 24.937C369.769 25.08 369.483 25.2229 369.205 25.3579C369.483 25.215 369.769 25.072 370.047 24.937Z" fill="#212B5D"/>
<path d="M289.631 56.4895C289.353 56.6325 289.067 56.7754 288.789 56.9104C289.067 56.7675 289.353 56.6245 289.631 56.4895Z" fill="#212B5D"/>
<path d="M301.42 51.8674C301.142 52.0104 300.856 52.1533 300.578 52.2883C300.856 52.1454 301.142 52.0024 301.42 51.8674Z" fill="#212B5D"/>
<path d="M381.835 20.3069C381.557 20.4498 381.271 20.5928 380.993 20.7278C381.271 20.5848 381.557 20.4419 381.835 20.3069Z" fill="#212B5D"/>
<path d="M205.776 51.1686C205.387 51.0177 204.998 50.8668 204.608 50.7239C204.998 50.8748 205.387 51.0257 205.776 51.1686Z" fill="#212B5D"/>
<path d="M313.209 47.2373C312.931 47.3803 312.645 47.5232 312.367 47.6582C312.645 47.5153 312.931 47.3723 313.209 47.2373Z" fill="#212B5D"/>
<path d="M393.624 15.6848C393.346 15.8278 393.06 15.9707 392.782 16.1057C393.06 15.9628 393.346 15.8198 393.624 15.6848Z" fill="#212B5D"/>
<path d="M324.997 42.6074C324.719 42.7504 324.433 42.8933 324.155 43.0283C324.433 42.8854 324.719 42.7424 324.997 42.6074Z" fill="#212B5D"/>
<path d="M403.308 11.8967C403.03 12.0397 402.744 12.1826 402.466 12.3176C402.744 12.1747 403.03 12.0317 403.308 11.8967Z" fill="#212B5D"/>
<path d="M334.681 38.8191C334.403 38.962 334.117 39.105 333.839 39.24C334.117 39.0971 334.403 38.9541 334.681 38.8191Z" fill="#212B5D"/>
<path d="M346.47 34.197C346.192 34.34 345.906 34.4829 345.628 34.6179C345.906 34.475 346.192 34.332 346.47 34.197Z" fill="#212B5D"/>
<path d="M358.258 29.5671C357.98 29.7101 357.694 29.853 357.416 29.988C357.694 29.8451 357.98 29.7021 358.258 29.5671Z" fill="#212B5D"/>
<path d="M18.589 252.896C18.9067 253.174 19.2562 253.389 19.2245 253.492C19.153 253.754 18.9067 253.977 18.7319 254.207C18.5492 254.04 18.2633 253.889 18.2156 253.691C18.1759 253.508 18.3983 253.27 18.581 252.896H18.589Z" fill="#212B5D"/>
<path d="M280.393 87.3194C280.139 87.5497 279.876 87.78 279.622 88.0103C279.519 87.8674 279.424 87.7165 279.32 87.5735C279.551 87.4624 279.781 87.3512 280.011 87.24C280.146 87.24 280.274 87.2638 280.393 87.3194Z" fill="#212B5D"/>
</g>
<defs>
<clipPath id="clip0_2285_39734">
<rect width="509" height="338" fill="white"/>
</clipPath>
</defs>
</svg>
